<svg width="104" height="28" fill="none" xmlns="http://www.w3.org/2000/svg"><path d="M10.505 7.746a.365.365 0 01.326-.187h2.143c.078 0 .14.031.187.094a.221.221 0 01.093.186v15.746a.29.29 0 01-.093.21.252.252 0 01-.187.07h-2.143a.34.34 0 01-.21-.07.34.34 0 01-.07-.21v-11.11c0-.047-.023-.079-.07-.094-.03-.015-.053 0-.07.047L7.502 16.9a.365.365 0 01-.327.186H6.103a.365.365 0 01-.326-.186l-2.935-4.45c-.016-.046-.047-.061-.093-.046-.032.016-.047.047-.047.094v11.087a.29.29 0 01-.093.21.252.252 0 01-.187.07H.28a.34.34 0 01-.21-.07.34.34 0 01-.07-.21V7.839c0-.078.023-.14.07-.186a.29.29 0 01.21-.094h2.142c.14 0 .249.063.327.187l3.796 5.753c.031.031.062.047.093.047.032 0 .055-.016.07-.047l3.797-5.753z" fill="#673AB7"/><path d="M17.071 23.864a.34.34 0 01-.21-.07.34.34 0 01-.07-.21V7.84c0-.078.024-.14.07-.186a.29.29 0 01.21-.094l1.164 3.08 1.197-3.08a.22.22 0 01.186.094c.047.062.093.108.093.186v15.746a.29.29 0 01-.093.21.252.252 0 01-.186.07h-2.36z" fill="#FFB300"/><path d="M32.693 7.839c0-.078.023-.14.07-.186a.29.29 0 01.21-.094h2.142c.078 0 .14.031.187.094a.221.221 0 01.093.186v15.746a.29.29 0 01-.093.21.252.252 0 01-.187.07h-2.073c-.155 0-.264-.063-.326-.187l-6.708-10.994c-.031-.047-.062-.062-.093-.047-.031 0-.047.031-.047.093l.047 10.855a.29.29 0 01-.093.21.252.252 0 01-.187.07h-2.143a.34.34 0 01-.21-.07.34.34 0 01-.07-.21V7.839c0-.078.024-.14.07-.186a.29.29 0 01.21-.094h2.073c.156 0 .264.063.326.187l6.686 10.994c.03.047.062.07.093.07.03-.016.046-.054.046-.117L32.693 7.84zm6.409 16.025a.34.34 0 01-.21-.07.34.34 0 01-.07-.21V7.84c0-.078.024-.14.07-.186a.29.29 0 01.21-.094h5.684c1.102 0 2.073.194 2.911.583.839.388 1.483.947 1.934 1.677.465.714.698 1.553.698 2.515v6.755c0 .963-.233 1.81-.698 2.54-.45.714-1.095 1.265-1.934 1.653-.838.388-1.809.582-2.911.582h-5.684zm2.423-2.445c0 .077.038.116.116.116h3.261c.823 0 1.475-.256 1.957-.768.497-.529.753-1.227.768-2.097v-5.893c0-.885-.248-1.584-.745-2.096-.497-.528-1.165-.792-2.003-.792H41.64c-.078 0-.116.039-.116.116V21.42zm17.48 2.631c-1.212 0-2.268-.193-3.168-.582-.901-.388-1.6-.931-2.097-1.63-.481-.699-.722-1.522-.722-2.47v-.581c0-.078.023-.14.07-.187a.29.29 0 01.21-.093h2.073a.22.22 0 01.186.093.221.221 0 01.093.187v.442c0 .714.319 1.312.955 1.794.637.465 1.507.698 2.61.698.946 0 1.66-.201 2.142-.605.482-.404.722-.924.722-1.56 0-.436-.132-.8-.396-1.096-.264-.31-.644-.59-1.141-.838-.482-.248-1.211-.56-2.19-.932-1.102-.404-1.995-.784-2.678-1.141a5.17 5.17 0 01-1.724-1.444c-.45-.622-.675-1.39-.675-2.306 0-1.367.496-2.446 1.49-3.238.994-.792 2.322-1.188 3.983-1.188 1.165 0 2.19.202 3.075.606.9.403 1.6.97 2.096 1.7.497.714.746 1.545.746 2.492v.396a.29.29 0 01-.094.21.252.252 0 01-.186.07H62.29a.34.34 0 01-.21-.07.34.34 0 01-.07-.21v-.256c0-.73-.303-1.343-.908-1.84-.59-.512-1.413-.769-2.47-.769-.853 0-1.521.179-2.002.536-.466.357-.7.862-.7 1.514 0 .466.125.846.373 1.141.249.295.622.567 1.119.816.496.233 1.265.535 2.306.908 1.102.42 1.98.8 2.632 1.141a4.891 4.891 0 011.7 1.445c.481.605.722 1.366.722 2.282 0 1.398-.52 2.508-1.56 3.331-1.025.823-2.43 1.235-4.216 1.235zM77.222 7.56c.078 0 .14.03.187.093a.221.221 0 01.093.186v1.793a.29.29 0 01-.093.21.252.252 0 01-.187.07h-4.285c-.078 0-.117.039-.117.116v13.557a.29.29 0 01-.093.21.252.252 0 01-.186.07h-2.143a.34.34 0 01-.21-.07.34.34 0 01-.07-.21V10.028c0-.077-.039-.116-.116-.116h-4.123a.34.34 0 01-.21-.07.34.34 0 01-.07-.21V7.84c0-.078.024-.14.07-.186a.29.29 0 01.21-.094h11.343z" fill="#673AB7"/><path fill-rule="evenodd" clip-rule="evenodd" d="M101.121 23.655l-3.075-6.709c-.03-.062-.078-.093-.14-.093h-2.795c-.077 0-.116.04-.116.117v6.615a.29.29 0 01-.093.21.252.252 0 01-.187.07h-2.143a.34.34 0 01-.21-.07.34.34 0 01-.07-.21V7.839c0-.078.024-.14.07-.186a.29.29 0 01.21-.094h6.406c.947 0 1.786.202 2.515.606.73.388 1.297.947 1.701 1.677.404.714.605 1.537.605 2.47 0 1.07-.279 1.987-.838 2.748-.544.745-1.304 1.265-2.283 1.56-.031 0-.054.016-.07.047a.102.102 0 000 .093l1.642 3.39 1.643 3.388a.355.355 0 01.046.14c0 .124-.085.186-.256.186h-2.236a.327.327 0 01-.326-.21zm-6.126-13.65c0-.078.039-.116.116-.116h3.494c.745 0 1.343.225 1.794.675.466.45.698 1.04.698 1.77s-.232 1.32-.698 1.77c-.45.436-1.049.653-1.794.653h-3.494c-.077 0-.116-.039-.116-.117v-4.635z" fill="#673AB7"/><path d="M87.997 23.864c-.156 0-.257-.077-.303-.233l-.769-2.492-3.144-10.156c-.016-.062-.04-.093-.07-.093-.031 0-.055.031-.07.093L80.543 21.14l-.769 2.492c-.046.156-.147.233-.302.233h-2.33c-.093 0-.163-.023-.21-.07-.046-.062-.054-.147-.023-.256l5.055-15.746c.046-.155.147-.233.303-.233h2.911c.156 0 .257.078.303.233l5.078 15.746a.26.26 0 01.023.117c0 .14-.085.21-.256.21h-2.33z" fill="#673AB7"/><path d="M18.373 7.026a.15.15 0 01-.279 0l-.586-1.46a.15.15 0 00-.13-.094l-1.57-.106a.15.15 0 01-.085-.265l1.207-1.009a.15.15 0 00.05-.152l-.384-1.526a.15.15 0 01.225-.163l1.333.836a.15.15 0 00.16 0l1.332-.836a.15.15 0 01.225.163l-.384 1.526a.15.15 0 00.05.152l1.207 1.01a.15.15 0 01-.086.264l-1.57.106a.15.15 0 00-.129.094l-.586 1.46z" fill="#FFB300"/></svg>